<?xml version="1.0" encoding="UTF-8"?>
<svg id="Layer_1" xmlns="http://www.w3.org/2000/svg" version="1.1" viewBox="0 0 12235.39 3401.57">
  <!-- Generator: Adobe Illustrator 29.8.2, SVG Export Plug-In . SVG Version: 2.1.1 Build 3)  -->
  <defs>
    <style>
      .st0 {
        fill: #005ea7;
      }
    </style>
  </defs>
  <path d="M1640.91,1857.07c0,390.01-265.43,705.92-703.22,705.92s-700.55-315.91-700.55-705.92,268.17-705.92,697.74-705.92,706.02,318.65,706.02,705.92M570.97,1857.07c0,206,123.15,398.25,366.73,398.25s366.59-192.25,366.59-398.25-142.28-401.02-366.59-401.02c-240.84,0-366.73,197.76-366.73,401.02"/>
  <path d="M2820.92,2532.76c-21.52,0-38.96-17.5-38.96-39.09v-669.57c0-207.39-113.73-364.7-330.04-362.57-189.58,1.93-340.37,161.23-340.37,351.59v680.54c0,21.59-17.43,39.09-38.96,39.09h-253.24c-21.46,0-38.92-17.5-38.92-39.09v-1275.2c0-23.52,19.02-42.61,42.44-42.61h218.2c21.49,0,39.57,16.15,42.13,37.57l17.43,146.47c136.77-134.58,273.61-203.23,443.26-203.23,317.43,0,571.92,238.95,571.92,664.7v672.3c0,21.59-17.47,39.09-38.96,39.09h-255.94Z"/>
  <path d="M3605.62,1975.17c21.89,167.52,166.91,288.41,402.27,288.41,109.94,0,250.36-37.23,333.75-101.87,16.89-13.11,40.98-11.05,56.19,3.99l152.89,151.5c17.91,17.81,17.03,47.1-1.93,63.79-143.5,126.43-356.69,187.49-546.41,187.49-465.15,0-741.53-288.41-741.53-722.41s279.12-708.66,716.9-708.66,714.98,262.36,685.38,784.61c-1.72,29.87-26.63,53.15-56.43,53.15h-1001.09ZM4338.97,1697.74c-21.89-175.76-158.7-263.68-350.24-263.68-180.59,0-328.38,87.91-377.61,263.68h727.85Z"/>
  <path d="M6348.56,871.3v491.34c79.37-140.08,301.01-216.98,443.29-216.98,394.06,0,686.83,241.72,686.83,708.66s-298.27,708.66-695.04,708.66c-164.21,0-331.12-54.94-435.08-217.02l-17.54,149.81c-2.5,21.05-20.31,37-41.49,37h-233.07c-23.04,0-41.76-18.75-41.76-41.93V871.3c0-24.16,19.53-43.72,43.62-43.72h246.68c24.02,0,43.55,19.56,43.55,43.72M6381.74,1854.31c0,244.45,180.56,398.25,391.29,398.25s383.05-162.04,383.05-398.25-169.61-395.51-383.05-395.51-391.29,159.31-391.29,395.51"/>
  <path d="M8753.24,1178.62h236.85c23.65,0,42.88,19.29,42.88,43.04v1273.65c0,20.68-16.69,37.44-37.3,37.44h-243.07c-19.36,0-35.54-14.9-37.17-34.33l-13.55-163.43c-76.67,159.31-287.33,236.24-437.85,238.98-399.5,2.74-695.04-244.48-695.04-719.64s309.26-711.43,703.25-708.69c180.63,0,352.98,85.14,429.64,219.75l8.55-146.23c1.35-22.77,20.1-40.55,42.81-40.55M7891.59,1854.33c0,258.2,177.86,412,399.5,412,525.36,0,525.36-821.27,0-821.27-221.65,0-399.5,151.03-399.5,409.27"/>
  <path d="M10260.06,2532.76c-18.82,0-34.06-15.3-34.06-34.16v-674.5c0-207.39-113.73-364.7-329.97-362.57-189.65,1.93-340.41,161.23-340.41,351.59v682.17c0,20.71-16.69,37.47-37.3,37.47h-256.48c-20.61,0-37.34-16.76-37.34-37.47v-1276.35c0-23.79,19.19-43.08,42.91-43.08h217.29c21.73,0,40,16.32,42.57,37.98l17.4,146.06c136.81-134.58,273.61-203.23,443.29-203.23,317.43,0,571.92,238.95,571.92,664.7v677.23c0,18.85-15.27,34.16-34.06,34.16h-265.77Z"/>
  <path d="M11394.48,1815.86l522.83-605.74c10.68-12.3,1.89-31.52-14.33-31.52h-335.58c-14.23,0-27.71,6.35-36.83,17.26l-439.81,526.61v-518.06c0-16.89-13.68-30.58-30.51-30.58h-272.9c-16.79,0-30.44,13.68-30.44,30.58v1299.56c0,15.91,12.81,28.75,28.65,28.75h276.55c15.85,0,28.65-12.84,28.65-28.75v-583.74l513.74,595.87c9.16,10.58,22.37,16.62,36.32,16.62h338.38c16.32,0,25.04-19.26,14.29-31.56l-599.01-685.31Z"/>
  <path class="st0" d="M5341.39,1161.43c-157.65,0-285.4,128.26-285.4,286.48s127.75,286.52,285.4,286.52,285.4-128.26,285.4-286.52-127.78-286.48-285.4-286.48"/>
  <path class="st0" d="M5341.39,2001c-157.65,0-285.4,128.26-285.4,286.48s127.75,286.48,285.4,286.48,285.4-128.22,285.4-286.48-127.78-286.48-285.4-286.48"/>
</svg>